<svg width="18" height="19" viewBox="0 0 18 19" fill="none" xmlns="http://www.w3.org/2000/svg">
<path d="M14.1198 8.50848L1.6198 0.175145C1.46293 0.0704795 1.28058 0.0103661 1.09221 0.0012165C0.90385 -0.0079331 0.716534 0.034225 0.550253 0.123193C0.383972 0.212162 0.244964 0.344602 0.148057 0.506386C0.05115 0.668169 -1.93478e-05 0.853226 8.85961e-06 1.04181L7.40256e-06 17.7085C-2.08378e-05 17.8971 0.0511485 18.0821 0.148055 18.2439C0.244962 18.4057 0.38397 18.5381 0.550252 18.6271C0.716533 18.7161 0.903849 18.7582 1.09221 18.7491C1.28058 18.7399 1.46292 18.6798 1.6198 18.5751L14.1198 10.2418C14.2625 10.1467 14.3794 10.0178 14.4603 9.86663C14.5412 9.71544 14.5836 9.54662 14.5836 9.37515C14.5836 9.20368 14.5412 9.03486 14.4603 8.88367C14.3794 8.73249 14.2625 8.60361 14.1198 8.50848V8.50848ZM2.08334 15.7616L2.08334 2.98869L11.6667 9.37515L2.08334 15.7616Z" fill="#00EEFF"/>
<path d="M16.6667 2.08347C16.3904 2.08347 16.1255 2.19322 15.9301 2.38857C15.7348 2.58392 15.625 2.84887 15.625 3.12514L15.625 15.6251C15.625 15.9014 15.7348 16.1664 15.9301 16.3617C16.1255 16.5571 16.3904 16.6668 16.6667 16.6668C16.9429 16.6668 17.2079 16.5571 17.4032 16.3617C17.5986 16.1664 17.7083 15.9014 17.7083 15.6251L17.7083 3.12514C17.7083 2.84887 17.5986 2.58392 17.4032 2.38857C17.2079 2.19322 16.9429 2.08347 16.6667 2.08347Z" fill="#00EEFF"/>
</svg>
