<svg width="25" height="30" viewBox="0 0 25 30" fill="none" xmlns="http://www.w3.org/2000/svg">
<path d="M8.12496 0H1.875C0.84123 0 0 0.84123 0 1.875V28.125C0 29.1588 0.84123 30 1.875 30H8.12502C9.15879 30 10 29.1588 10 28.125V1.875C9.99996 0.84123 9.15873 0 8.12496 0ZM8.74998 28.125C8.74998 28.4688 8.46996 28.75 8.12496 28.75H1.875C1.53 28.75 1.24998 28.4688 1.24998 28.125V1.875C1.24998 1.53123 1.53 1.24998 1.875 1.24998H8.12502C8.47002 1.24998 8.75004 1.53123 8.75004 1.875V28.125H8.74998Z" fill="#00EEFF"/>
<path d="M23.125 0H16.875C15.8412 0 15 0.84123 15 1.875V28.125C15 29.1588 15.8412 30 16.875 30H23.125C24.1588 30 25 29.1588 25 28.125V1.875C25 0.84123 24.1587 0 23.125 0ZM23.75 28.125C23.75 28.4688 23.47 28.75 23.125 28.75H16.875C16.53 28.75 16.25 28.4688 16.25 28.125V1.875C16.25 1.53123 16.53 1.24998 16.875 1.24998H23.125C23.47 1.24998 23.75 1.53123 23.75 1.875V28.125H23.75Z" fill="#00EEFF"/>
</svg>
