<svg width="28" height="30" viewBox="0 0 28 30" fill="none" xmlns="http://www.w3.org/2000/svg">
<path d="M26.4687 13.77L2.95133 0.192083C2.73541 0.0674378 2.49049 0.00182223 2.24118 0.00183106C1.99187 0.00183988 1.74695 0.0674727 1.53105 0.192133C1.31514 0.316794 1.13585 0.496089 1.0112 0.712C0.886542 0.927911 0.820918 1.17283 0.820917 1.42214V28.5779C0.819997 28.8275 0.885047 29.073 1.00949 29.2895C1.13392 29.5059 1.31333 29.6857 1.52956 29.8105C1.74578 29.9354 1.99114 30.0009 2.24082 30.0004C2.4905 30 2.73562 29.9336 2.95139 29.8079L26.4687 16.23C26.6847 16.1054 26.864 15.9261 26.9886 15.7102C27.1133 15.4942 27.1789 15.2493 27.1789 15C27.1789 14.7507 27.1133 14.5058 26.9886 14.2899C26.864 14.0739 26.6847 13.8947 26.4687 13.77V13.77ZM2.69592 27.7904V2.20964L24.8494 15L2.69592 27.7904Z" fill="#00EEFF"/>
</svg>
