<svg width="19" height="19" viewBox="0 0 19 19" fill="none" xmlns="http://www.w3.org/2000/svg">
<path d="M4.23438 10.3667L16.7344 18.7C16.8913 18.8047 17.0736 18.8648 17.262 18.8739C17.4503 18.8831 17.6376 18.8409 17.8039 18.752C17.9702 18.663 18.1092 18.5305 18.2061 18.3688C18.303 18.207 18.3542 18.0219 18.3542 17.8333V1.16667C18.3542 0.978084 18.303 0.793028 18.2061 0.631244C18.1092 0.469461 17.9702 0.33702 17.8039 0.248051C17.6376 0.159083 17.4503 0.116925 17.262 0.126074C17.0736 0.135224 16.8913 0.195338 16.7344 0.300003L4.23438 8.63334C4.09171 8.72847 3.97474 8.85734 3.89383 9.00853C3.81293 9.15971 3.7706 9.32853 3.7706 9.5C3.7706 9.67148 3.81293 9.8403 3.89383 9.99148C3.97474 10.1427 4.09171 10.2715 4.23438 10.3667V10.3667ZM16.2708 3.11355V15.8865L6.6875 9.5L16.2708 3.11355Z" fill="#00EEFF"/>
<path d="M1.68751 16.7917C1.96378 16.7917 2.22873 16.6819 2.42408 16.4866C2.61943 16.2912 2.72917 16.0263 2.72917 15.75V3.25001C2.72917 2.97374 2.61943 2.70879 2.42408 2.51344C2.22873 2.31809 1.96378 2.20834 1.68751 2.20834C1.41124 2.20834 1.14629 2.31809 0.95094 2.51344C0.75559 2.70879 0.645844 2.97374 0.645844 3.25001V15.75C0.645844 16.0263 0.75559 16.2912 0.95094 16.4866C1.14629 16.6819 1.41124 16.7917 1.68751 16.7917Z" fill="#00EEFF"/>
</svg>
