<svg width="30" height="30" viewBox="0 0 30 30" fill="none" xmlns="http://www.w3.org/2000/svg">
<path d="M25.3125 0H4.6875C2.10281 0 0 2.10281 0 4.6875V25.3125C0 27.8972 2.10281 30 4.6875 30H25.3125C27.8972 30 30 27.8972 30 25.3125V4.6875C30 2.10281 27.8972 0 25.3125 0ZM27.6562 25.3125C27.6562 26.6048 26.6048 27.6562 25.3125 27.6562H4.6875C3.39516 27.6562 2.34375 26.6048 2.34375 25.3125V4.6875C2.34375 3.39516 3.39516 2.34375 4.6875 2.34375H25.3125C26.6048 2.34375 27.6562 3.39516 27.6562 4.6875V25.3125Z" fill="#00EEFF"/>
</svg>
